<?xml version="1.0" encoding="iso-8859-1"?>
<!-- Generator: Adobe Illustrator 19.0.0, SVG Export Plug-In . SVG Version: 6.00 Build 0)  -->
<svg version="1.1" id="Layer_1" xmlns="http://www.w3.org/2000/svg" xmlns:xlink="http://www.w3.org/1999/xlink" x="0px" y="0px"
	 viewBox="0 0 512 512" style="enable-background:new 0 0 512 512;" xml:space="preserve">
<g>
	<path style="fill:#FFC61B;" d="M128.804,371.041c-0.805,0-1.619-0.067-2.439-0.209c-7.8-1.338-13.04-8.745-11.702-16.545
		l5.104-29.758L4.327,212.002c-3.906-3.807-5.311-9.502-3.625-14.689c1.687-5.187,6.17-8.967,11.568-9.753l159.534-23.182
		L243.15,19.815c2.415-4.891,7.395-7.987,12.851-7.987c5.455,0,10.436,3.097,12.851,7.987l71.346,144.562l159.534,23.182
		c5.399,0.784,9.882,4.565,11.568,9.753c1.685,5.187,0.279,10.882-3.625,14.689l-45.389,44.243
		c-5.669,5.524-14.741,5.407-20.265-0.259c-5.523-5.667-5.407-14.739,0.259-20.263l24.598-23.976l-138.257-20.09
		c-4.667-0.678-8.701-3.61-10.789-7.838L256,58.536l-61.829,125.282c-2.088,4.229-6.122,7.16-10.789,7.838l-138.257,20.09
		l100.043,97.518c3.376,3.292,4.918,8.035,4.121,12.683l-6.377,37.184C141.713,366.112,135.653,371.041,128.804,371.041z"/>
	<path style="fill:#FFC61B;" d="M405.359,500.171c-2.281,0-4.57-0.543-6.666-1.646L256,423.506l-142.692,75.02
		c-4.826,2.539-10.678,2.116-15.09-1.09c-4.412-3.207-6.623-8.639-5.702-14.016l10.538-61.438c1.338-7.8,8.747-13.04,16.546-11.702
		c7.8,1.338,13.04,8.745,11.702,16.545l-5.632,32.822l123.661-65.012c4.173-2.195,9.164-2.195,13.337,0l123.661,65.012
		l-23.617-137.699c-0.797-4.648,0.745-9.392,4.121-12.683l30.47-29.701c5.669-5.524,14.741-5.407,20.265,0.259
		c5.523,5.667,5.407,14.739-0.259,20.263l-25.075,24.443l27.252,158.891c0.923,5.375-1.288,10.809-5.702,14.016
		C411.287,499.248,408.329,500.171,405.359,500.171z"/>
</g>
<polygon style="fill:#FEE187;" points="256,342.561 182.765,381.064 196.752,299.515 137.503,241.763 219.383,229.866 256,155.671 
	292.617,229.866 374.496,241.763 315.247,299.515 329.234,381.064 "/>
<path style="fill:#FFC61B;" d="M329.233,395.393c-2.281,0-4.57-0.543-6.666-1.646L256,358.751l-66.567,34.996
	c-4.826,2.539-10.678,2.116-15.09-1.09c-4.412-3.207-6.623-8.639-5.702-14.016l12.713-74.123l-53.853-52.494
	c-3.906-3.807-5.311-9.502-3.625-14.689c1.687-5.187,6.17-8.967,11.568-9.753l74.424-10.815l33.283-67.439
	c2.415-4.891,7.395-7.987,12.851-7.987c5.455,0,10.436,3.097,12.851,7.987l33.283,67.439l74.424,10.815
	c5.399,0.784,9.882,4.565,11.568,9.753c1.685,5.187,0.279,10.882-3.625,14.689l-53.853,52.494l12.553,73.191
	c0.259,1.075,0.394,2.198,0.394,3.353c0,7.91-6.408,14.324-14.317,14.33C329.262,395.393,329.247,395.393,329.233,395.393z
	 M256,328.232c2.291,0,4.581,0.549,6.668,1.646l47.536,24.989l-9.079-52.931c-0.797-4.648,0.745-9.392,4.121-12.685l38.456-37.485
	l-53.144-7.722c-4.669-0.678-8.702-3.61-10.79-7.838L256,188.05l-23.767,48.157c-2.088,4.229-6.122,7.16-10.79,7.838l-53.144,7.722
	l38.456,37.485c3.376,3.293,4.918,8.035,4.121,12.685l-9.079,52.931l47.535-24.989C251.418,328.781,253.709,328.232,256,328.232z"/>
<g>
</g>
<g>
</g>
<g>
</g>
<g>
</g>
<g>
</g>
<g>
</g>
<g>
</g>
<g>
</g>
<g>
</g>
<g>
</g>
<g>
</g>
<g>
</g>
<g>
</g>
<g>
</g>
<g>
</g>
</svg>
