<?xml version="1.0" encoding="iso-8859-1"?>
<!-- Generator: Adobe Illustrator 19.0.0, SVG Export Plug-In . SVG Version: 6.00 Build 0)  -->
<svg version="1.1" id="Layer_1" xmlns="http://www.w3.org/2000/svg" xmlns:xlink="http://www.w3.org/1999/xlink" x="0px" y="0px"
	 viewBox="0 0 492.8 492.8" style="enable-background:new 0 0 492.8 492.8;" xml:space="preserve">
<polygon style="fill:#34B515;" points="310,328.8 246,341.6 182,328.8 182,492.8 246,429.6 310,492.8 "/>
<polyline style="fill:#329908;" points="246,429.6 310,492.8 310,328.8 246,341.6 182.8,328.8 "/>
<path style="fill:#E57C0A;" d="M400.4,215.2l30.4-30.4l-31.2-31.2l15.2-40l-40.8-16V54.4h-40.8l-16.8-40l-40,16.8L246,0l-31.2,31.2
	l-40-16.8l-16,40H118v43.2l-41.6,16.8l16,40L62,184.8L92.4,216l-15.2,40l40.8,16v46.4h40.8l16.8,38.4l40-17.6l30.4,29.6l31.2-31.2
	l40,18.4l16-38.4H374v-47.2l41.6-16.8L400.4,215.2z M262,212l-7.2-3.2l-3.2,8.8l-5.6-6.4l-6.4,6.4l-2.4-8l-7.2,3.2v-6.4h-11.2
	L222,196l-8.8-4l6.4-7.2l-6.4-6.4l8-3.2l-3.2-8.8h12v-9.6l7.2,3.2l3.2-8.8l5.6,7.2l6.4-6.4l2.4,8l7.2-3.2v9.6h11.2l-3.2,8l8.8,3.2
	l-6.4,6.4l6.4,6.4l-8,4.8l3.2,10.4h-12V212z"/>
<path style="fill:#D16800;" d="M118,270.4v48h40.8l16.8,38.4l40-17.6l30.4,29.6l31.2-31.2l40,18.4l16-38.4H374v-47.2l41.6-16.8
	l-16-40l30.4-30.4L399.6,152l15.2-40L374,96V54.4h-40 M262,212l-7.2-3.2l-3.2,8.8l-5.6-6.4l-6.4,6.4l-2.4-8l-7.2,3.2v-6.4h-11.2
	L222,196l-8.8-4l6.4-7.2l-6.4-6.4l8-3.2l-3.2-8.8h12v-9.6l7.2,3.2l3.2-8.8l5.6,7.2l6.4-6.4l2.4,8l7.2-3.2v9.6h11.2l-3.2,8l8.8,3.2
	l-6.4,6.4l6.4,6.4l-8,4.8l3.2,10.4h-12V212z"/>
<circle style="fill:#FFC41D;" cx="246" cy="184.8" r="113.6"/>
<path style="fill:#F4A211;" d="M326.8,104c44.8,44.8,44.8,116.8,0,161.6s-116.8,44.8-161.6,0"/>
<path style="fill:#353A3A;" d="M230,142.4h-0.8l-29.6,12.8l-5.6-26.4l40.8-18.4H262v152h-32V142.4z"/>
<path style="fill:#1A1E1E;" d="M262,110.4v152h-32v-60.8l0,0"/>
<g>
</g>
<g>
</g>
<g>
</g>
<g>
</g>
<g>
</g>
<g>
</g>
<g>
</g>
<g>
</g>
<g>
</g>
<g>
</g>
<g>
</g>
<g>
</g>
<g>
</g>
<g>
</g>
<g>
</g>
</svg>
