<?xml version="1.0" encoding="iso-8859-1"?>
<!-- Generator: Adobe Illustrator 19.0.0, SVG Export Plug-In . SVG Version: 6.00 Build 0)  -->
<svg version="1.1" id="Capa_1" xmlns="http://www.w3.org/2000/svg" xmlns:xlink="http://www.w3.org/1999/xlink" x="0px" y="0px"
	 viewBox="0 0 399.441 399.441" style="enable-background:new 0 0 399.441 399.441;" xml:space="preserve">
<g id="XMLID_5_">
	<polygon id="XMLID_509_" style="fill:#EA348B;" points="199.715,122.751 199.715,122.721 171.85,66.233 137.998,134.826 
		138.037,134.82 171.21,180.509 	"/>
	<polygon id="XMLID_510_" style="fill:#F7AED1;" points="228.236,180.542 261.449,134.86 199.715,9.772 171.85,66.233 
		199.715,122.721 	"/>
	<polygon id="XMLID_511_" style="fill:#FF9811;" points="153.571,234.757 107.448,189.799 107.42,189.79 45.086,198.835 
		99.861,252.227 99.867,252.188 99.877,252.185 99.877,252.185 	"/>
	<polygon id="XMLID_512_" style="fill:#FFDA44;" points="171.226,180.532 171.21,180.509 138.043,134.828 0,154.887 45.086,198.835 
		107.42,189.79 	"/>
	<polygon id="XMLID_515_" style="fill:#64C37D;" points="199.695,324.748 199.715,268.295 142.703,298.269 142.686,298.293 
		132.026,360.371 199.73,324.776 199.696,324.758 199.696,324.749 	"/>
	<polygon id="XMLID_516_" style="fill:#91DC5A;" points="153.598,234.749 153.571,234.757 99.877,252.185 99.877,252.185 
		76.297,389.669 132.026,360.371 142.686,298.293 	"/>
	<polygon id="XMLID_517_" style="fill:#00D7DF;" points="299.591,252.213 299.564,252.241 299.554,252.238 299.554,252.238 
		245.87,234.775 256.758,298.258 256.776,298.282 312.521,327.603 	"/>
	<polygon id="XMLID_518_" style="fill:#99EFF2;" points="199.696,324.749 323.165,389.659 312.521,327.603 256.776,298.282 
		199.715,268.268 199.715,268.295 199.695,324.748 	"/>
	<polygon id="XMLID_519_" style="fill:#933EC5;" points="261.439,134.817 261.456,134.852 228.253,180.52 291.993,189.783 
		292.021,189.773 337.134,145.816 	"/>
	<polygon id="XMLID_520_" style="fill:#7C84E8;" points="299.554,252.238 399.441,154.87 337.134,145.816 292.021,189.773 
		245.844,234.766 299.554,252.238 	"/>
</g>
<g>
</g>
<g>
</g>
<g>
</g>
<g>
</g>
<g>
</g>
<g>
</g>
<g>
</g>
<g>
</g>
<g>
</g>
<g>
</g>
<g>
</g>
<g>
</g>
<g>
</g>
<g>
</g>
<g>
</g>
</svg>
